<?xml version="1.0" encoding="utf-8"?>
<!-- Generator: Adobe Illustrator 18.1.1, SVG Export Plug-In . SVG Version: 6.00 Build 0)  -->
<!DOCTYPE svg PUBLIC "-//W3C//DTD SVG 1.1//EN" "http://www.w3.org/Graphics/SVG/1.1/DTD/svg11.dtd">
<svg version="1.1" id="Layer_1" xmlns="http://www.w3.org/2000/svg" xmlns:xlink="http://www.w3.org/1999/xlink" x="0px" y="0px"
	 viewBox="0 0 733 300" enable-background="new 0 0 733 300" xml:space="preserve">
<g>
	<path fill="#BBBDC0" d="M124.5,190.1h-16.6v-2.5c0,0-8.5,3.9-14.9,3.9c-18.6,0-24.1-11.2-24.1-32.9c0-22.4,8.8-31.7,25.6-31.7
		c4.6,0,13.4,1.6,13.4,1.6v-24.9h16.6V190.1z M107.9,174.4v-31.4c0,0-6.8-1.1-12.1-1.1c-6.2,0-10,4.4-10,16.7
		c0,12.5,2.4,17.3,10.2,17.6C100.8,175.9,107.9,174.4,107.9,174.4z"/>
	<path fill="#BBBDC0" d="M187.8,159.1c0,19-6.9,32.4-28.4,32.4S131,178.2,131,159.1s6.9-32.3,28.4-32.3
		C180.9,126.9,187.8,140.1,187.8,159.1z M171,159.1c0-11.4-2.5-17.3-11.7-17.3c-9.1,0-11.7,5.9-11.7,17.3c0,11.4,2.5,17.4,11.7,17.4
		C168.5,176.6,171,170.5,171,159.1z"/>
	<path fill="#BBBDC0" d="M241,129.5l-0.5,14.2c0,0-9.8-1-14.4-1c-11.9,0-14.1,4.1-14.1,15.8c0,13.2,2.4,17.2,14.2,17.2
		c4.7,0,14.4-1,14.4-1l0.5,14.2c0,0-13.2,2.6-20.1,2.6c-18.4,0-25.7-9.8-25.7-33c0-21.9,7.6-31.7,26.1-31.7
		C228.5,126.9,241,129.5,241,129.5z"/>
	<path fill="#BBBDC0" d="M302.1,128.3v61.7h-16.6v-2.6c0,0-9.6,4.1-15.3,4.1c-18.1,0-21.7-9.8-21.7-30.9v-32.3H265v32.3
		c0,11.2,0.4,15.9,8.6,15.9c4.1,0,11.9-2.1,11.9-2.1v-46H302.1z"/>
	<path fill="#BBBDC0" d="M310.1,190.1v-61.7h16.4v3c0,0,4.1-2,8.4-3.4c2.1-0.7,4.4-1.1,6.2-1.1c6.9,0,11.7,1.7,15.1,5.1
		c6.3-2.4,14.4-5.1,21.2-5.1c16.8,0,21.7,9.8,21.7,30.9V190h-16.6v-25.4c0-15.6,0.2-22.2-8.6-22.2c-4.9,0-11.5,2.4-11.5,2.4
		s0.5,8.5,0.5,13.4v32h-16.6v-31.8c0-11.2-1-15.9-8.6-15.9c-4.1,0-11,2.1-11,2.1v45.6L310.1,190.1L310.1,190.1z"/>
	<path fill="#BBBDC0" d="M456.6,175.2l0.2,12.9c0,0-14.2,3.4-25.7,3.4c-18.6,0-26.6-9.3-26.6-31.5c0-22,9.3-33.2,27.3-33.2
		c18.1,0,26.9,9.1,26.9,27.8l-1.2,11.7h-36.4c0.2,7.1,3.6,10,12.5,10C443.9,176.3,456.6,175.2,456.6,175.2z M442.5,153.6
		c0-8.8-2.9-12-10.7-12c-7.9,0-10.7,3.9-10.8,12H442.5z"/>
	<path fill="#BBBDC0" d="M465,190.1v-61.7h16.6v3.4c0,0,8.3-4.9,15.3-4.9c17.3,0,21.7,10.9,21.7,30.9v32.3h-16.6v-32.9
		c0-9.4-1.2-15.4-9.3-15.4c-5.8,0-11.2,2.2-11.2,2.2v46.1L465,190.1L465,190.1z"/>
	<path fill="#BBBDC0" d="M548.1,143.4v23.4c0,6.2,0,9,5.2,9c3.4,0,9.4-0.2,9.4-0.2l0.7,14.2c0,0-8.3,1.9-12.6,1.9
		c-14.9,0-19.3-5.7-19.3-23.5v-24.8h-7.3v-15h7.3V111H548v17.3h15.2v14.9L548.1,143.4L548.1,143.4z"/>
</g>
<path fill="#5B6260" d="M19.6,170.5c0,0-0.2-0.8-1.9-1.3c0,0-2,0-2.1,1c0,0-0.2,4.3-2.5,12.7l0.4,8.9c0.2-5,0.5-7.3,0.6-8.3
	c-0.1-0.2-0.1-0.7,0-1.1c0.2-0.7,0.6-1.1,0.8-1.1c0.3,0.1,0.4,0.7,0.2,1.4c-0.2,0.6-0.4,1-0.7,1.1c-0.2,1.1-0.5,3.4-0.8,8.5l1.2-4.7
	c0,0,0.9-3.3,4.2-4.4C19.2,183.1,17.2,177.9,19.6,170.5z"/>
<g>
	<g>
		<path fill="#3ACCC1" d="M70.3,79.4c-1,0.2-2.1,0.2-3,0.5c-1,0.3-1.9,0.9-2.9,1.4c-0.4,0.2-0.4,0.2-0.8,0.5
			c-1.2,2.4-2.3,5.1-2.3,5.1c-0.3-0.7-0.5-2.1,0.1-3.8c-1.2,0.7-1.9,1-3,1.7c-3.2,1.9-8.9,5.6-11.6,8.8c-0.7,0.9-1.4,1.8-2,2.8
			c-0.7,1.1-1.7,13.4-1.7,13.4c-0.7-1.2-0.3-11-0.3-11l-3.4,4.3l-1.2,12.5c-1-1.9-0.5-10.8-0.5-10.8c-2.2,1.9-13.1,16.1-15.8,20.8
			c-2.7,4.8,1.2,15.4,1.2,15.4c-5.5-5.3-5.4-9.3-5.4-9.3c-2.2,4.4,3.8,20.8,3.8,20.8c-6.2-7.1-6.6-13.1-6.6-13.1
			c-1,3.6-0.3,7.6,0.3,10.4c0.4,2,2.7,6.6,4.1,9.4c-1.1-0.8-3.4-1.9-7.5-0.4c0,0,5.8-0.1,7,1.9c-0.5,1.6-1.3,4.7-2.1,8.4
			c0.5-0.2,1-0.2,1-0.2c0.7,0.2,1.1,0.5,1.5,0.7c0.2-1.2,0.4-2.4,0.6-3.6c0.4-2.6,1.1-5.3,2-7.8c0.6-1.6,1.2-3.3,1.9-4.9
			c1.8-4.5,3.7-9,5.8-13.4c2.7-5.7,5.6-11.3,8.7-16.9c3.8-6.6,7.7-13.1,12-19.5c2.1-3.2,4.3-6.4,6.6-9.5c-1.4,1.9-22.7,32-33.6,68.2
			c10.7-4.5,17.2-11.9,18.6-13.9c-2.1,2.7-15.3,8.3-15.3,8.3l2.1-1.7c4.5-3.8,8.9-7.9,12.6-12.3c3.9-4.5,6.7-9.7,9.8-14.8
			c1-1.6,2-3.3,2.8-5.1c0.7-1.3,1.2-2.7,1.7-4.1c0.1-0.2-0.2-0.4-0.4-0.3c-3.3,1.6-13.7,5.2-13.7,5.2s0.2-0.8,1-1.6
			c0.8-0.8,17.3-9.3,20.7-12c3.3-2.7,7-12,7-12c-0.8,1.7-4.4,4.6-4.4,4.6c1.2-1.7,3.8-8,3.8-8c-0.8,1.6-9.1,8.9-9.1,8.9
			c0.3-1.7,5.7-10.4,8-12.6c0.7-0.7,0.9-1.1,1.7-1.8c-1.1-0.2-2.1-0.9-3-0.7c0,0,1.2-0.9,4.5-0.6l0.1-0.1c-0.5-0.2-1.6-0.7-2.2-0.6
			c0,0,1.2-0.6,3-0.3c0.2-0.2,0.2-0.2,0.5-0.6c1-1.1,1.1-2.8,1.5-4.2c0.1-0.2,0.7-2.9,0.7-2.9C73.5,79,71.8,79.3,70.3,79.4z"/>
		<path fill="#3ACCC1" d="M41.9,148.7C42.3,148.2,42.3,148.1,41.9,148.7L41.9,148.7z"/>
		<path fill="#3ACCC1" d="M41.9,148.7C41.9,148.7,41.8,148.7,41.9,148.7C41.8,148.7,41.8,148.7,41.9,148.7L41.9,148.7z"/>
	</g>
	<text transform="matrix(0.9507 0 0 1 566.8838 190.7041)" fill="#3ACCC1" font-family="'Titillium-Thin'" font-size="124.6547">css</text>
</g>
</svg>
