<?xml version="1.0" encoding="utf-8"?>
<!-- Generator: Adobe Illustrator 18.1.1, SVG Export Plug-In . SVG Version: 6.00 Build 0)  -->
<!DOCTYPE svg PUBLIC "-//W3C//DTD SVG 1.1//EN" "http://www.w3.org/Graphics/SVG/1.1/DTD/svg11.dtd">
<svg version="1.1" id="Layer_1" xmlns="http://www.w3.org/2000/svg" xmlns:xlink="http://www.w3.org/1999/xlink" x="0px" y="0px"
	 width="650px" height="300px" viewBox="0 0 650 300" enable-background="new 0 0 650 300" xml:space="preserve">
<g>
	<path fill="#BBBDC0" d="M110.4,185.6H95.7v-2.2c0,0-7.5,3.5-13.2,3.5c-16.5,0-21.4-9.9-21.4-29.2c0-19.9,7.8-28.1,22.7-28.1
		c4.1,0,11.9,1.4,11.9,1.4v-22.1h14.7V185.6z M95.7,171.6v-27.8c0,0-6-1-10.7-1c-5.5,0-8.9,3.9-8.9,14.8c0,11.1,2.1,15.3,9,15.6
		C89.4,173,95.7,171.6,95.7,171.6z"/>
	<path fill="#BBBDC0" d="M166.5,158.1c0,16.8-6.1,28.7-25.2,28.7s-25.2-11.8-25.2-28.7s6.1-28.6,25.2-28.6
		C160.4,129.5,166.5,141.2,166.5,158.1z M151.6,158.1c0-10.1-2.2-15.3-10.4-15.3c-8.1,0-10.4,5.2-10.4,15.3
		c0,10.1,2.2,15.4,10.4,15.4C149.4,173.6,151.6,168.2,151.6,158.1z"/>
	<path fill="#BBBDC0" d="M213.7,131.8l-0.4,12.6c0,0-8.7-0.9-12.8-0.9c-10.6,0-12.5,3.6-12.5,14c0,11.7,2.1,15.3,12.6,15.3
		c4.2,0,12.8-0.9,12.8-0.9l0.4,12.6c0,0-11.7,2.3-17.8,2.3c-16.3,0-22.8-8.7-22.8-29.3c0-19.4,6.7-28.1,23.1-28.1
		C202.6,129.5,213.7,131.8,213.7,131.8z"/>
	<path fill="#BBBDC0" d="M267.9,130.8v54.7h-14.7v-2.3c0,0-8.5,3.6-13.6,3.6c-16.1,0-19.2-8.7-19.2-27.4v-28.6H235v28.6
		c0,9.9,0.4,14.1,7.6,14.1c3.6,0,10.6-1.9,10.6-1.9v-40.8L267.9,130.8L267.9,130.8z"/>
	<path fill="#BBBDC0" d="M275,185.6v-54.7h14.5v2.7c0,0,3.6-1.8,7.4-3c1.9-0.6,3.9-1,5.5-1c6.1,0,10.4,1.5,13.4,4.5
		c5.6-2.1,12.8-4.5,18.8-4.5c14.9,0,19.2,8.7,19.2,27.4v28.6h-14.7v-22.5c0-13.8,0.2-19.7-7.6-19.7c-4.3,0-10.2,2.1-10.2,2.1
		s0.4,7.5,0.4,11.9v28.4h-14.7v-28.2c0-9.9-0.9-14.1-7.6-14.1c-3.6,0-9.8,1.9-9.8,1.9v40.4L275,185.6L275,185.6z"/>
	<path fill="#BBBDC0" d="M404.9,172.3l0.2,11.4c0,0-12.6,3-22.8,3c-16.5,0-23.6-8.2-23.6-27.9c0-19.5,8.2-29.4,24.2-29.4
		c16.1,0,23.9,8.1,23.9,24.7l-1.1,10.4h-32.3c0.2,6.3,3.2,8.9,11.1,8.9C393.6,173.3,404.9,172.3,404.9,172.3z M392.4,153.2
		c0-7.8-2.6-10.6-9.5-10.6c-7,0-9.5,3.5-9.6,10.6H392.4z"/>
	<path fill="#BBBDC0" d="M412.3,185.6v-54.7h14.7v3c0,0,7.4-4.3,13.6-4.3c15.3,0,19.2,9.7,19.2,27.4v28.6h-14.7v-29.2
		c0-8.3-1.1-13.7-8.2-13.7c-5.1,0-9.9,2-9.9,2v40.9H412.3L412.3,185.6z"/>
	<path fill="#BBBDC0" d="M486,144.1v20.8c0,5.5,0,8,4.6,8c3,0,8.3-0.2,8.3-0.2l0.6,12.6c0,0-7.4,1.7-11.2,1.7
		c-13.2,0-17.1-5.1-17.1-20.8v-22h-6.5v-13.3h6.5v-15.4h14.6v15.3h13.5V144L486,144.1L486,144.1z"/>
</g>
<path fill="#5B6260" d="M17.4,168.2c0,0-0.2-0.7-1.7-1.2c0,0-1.8,0-1.9,0.9c0,0-0.2,3.8-2.2,11.3l0.4,7.9c0.2-4.4,0.4-6.5,0.5-7.4
	c-0.1-0.2-0.1-0.6,0-1c0.2-0.6,0.5-1,0.7-1c0.3,0.1,0.4,0.6,0.2,1.2c-0.2,0.5-0.4,0.9-0.6,1c-0.2,1-0.4,3-0.7,7.5l1.1-4.2
	c0,0,0.8-2.9,3.7-3.9C17,179.4,15.3,174.7,17.4,168.2z"/>
<g>
	<g>
		<path fill="#3ACCC1" d="M62.3,87.4c-0.9,0.2-1.9,0.2-2.7,0.4c-0.9,0.3-1.7,0.8-2.6,1.2c-0.4,0.2-0.4,0.2-0.7,0.4
			c-1.1,2.1-2,4.5-2,4.5c-0.3-0.6-0.4-1.9,0.1-3.4c-1.1,0.6-1.7,0.9-2.7,1.5c-2.8,1.7-7.9,5-10.3,7.8c-0.6,0.8-1.2,1.6-1.8,2.5
			c-0.6,1-1.5,11.9-1.5,11.9c-0.6-1.1-0.3-9.8-0.3-9.8l-3,3.8l-1.1,11.1c-0.9-1.7-0.4-9.6-0.4-9.6c-2,1.7-11.6,14.3-14,18.4
			c-2.4,4.3,1.1,13.7,1.1,13.7c-4.9-4.7-4.8-8.2-4.8-8.2c-2,3.9,3.4,18.4,3.4,18.4c-5.5-6.3-5.9-11.6-5.9-11.6
			c-0.9,3.2-0.3,6.7,0.3,9.2c0.4,1.8,2.4,5.9,3.6,8.3c-1-0.7-3-1.7-6.7-0.4c0,0,5.1-0.1,6.2,1.7c-0.4,1.4-1.2,4.2-1.9,7.4
			c0.4-0.2,0.9-0.2,0.9-0.2c0.6,0.2,1,0.4,1.3,0.6c0.2-1.1,0.4-2.1,0.5-3.2c0.4-2.3,1-4.7,1.8-6.9c0.5-1.4,1.1-2.9,1.7-4.3
			c1.6-4,3.3-8,5.1-11.9c2.4-5.1,5-10,7.7-15c3.4-5.9,6.8-11.6,10.6-17.3c1.9-2.8,3.8-5.7,5.9-8.4c-1.2,1.7-20.1,28.4-29.8,60.5
			c9.5-4,15.3-10.6,16.5-12.3c-1.9,2.4-13.6,7.4-13.6,7.4l1.9-1.5c4-3.4,7.9-7,11.2-10.9c3.5-4,5.9-8.6,8.7-13.1
			c0.9-1.4,1.8-2.9,2.5-4.5c0.6-1.2,1.1-2.4,1.5-3.6c0.1-0.2-0.2-0.4-0.4-0.3c-2.9,1.4-12.1,4.6-12.1,4.6s0.2-0.7,0.9-1.4
			c0.7-0.7,15.3-8.2,18.4-10.6c2.9-2.4,6.2-10.6,6.2-10.6c-0.7,1.5-3.9,4.1-3.9,4.1c1.1-1.5,3.4-7.1,3.4-7.1
			c-0.7,1.4-8.1,7.9-8.1,7.9c0.3-1.5,5.1-9.2,7.1-11.2c0.6-0.6,0.8-1,1.5-1.6c-1-0.2-1.9-0.8-2.7-0.6c0,0,1.1-0.8,4-0.5l0.1-0.1
			c-0.4-0.2-1.4-0.6-2-0.5c0,0,1.1-0.5,2.7-0.3c0.2-0.2,0.2-0.2,0.4-0.5c0.9-1,1-2.5,1.3-3.7c0.1-0.2,0.6-2.6,0.6-2.6
			C65.2,87,63.7,87.3,62.3,87.4z"/>
		<path fill="#3ACCC1" d="M37.2,148.8C37.5,148.4,37.5,148.3,37.2,148.8L37.2,148.8z"/>
		<path fill="#3ACCC1" d="M37.2,148.8C37.2,148.8,37.1,148.8,37.2,148.8C37.1,148.8,37.1,148.8,37.2,148.8L37.2,148.8z"/>
	</g>
	<g enable-background="new    ">
		<path fill="#3ACCC1" d="M543.2,130.9l-0.2,3.5c0,0-8.4-1.1-12.4-1.1c-13.5,0-17.7,6.4-17.7,23.9c0,19,2.7,26.3,17.7,26.3
			c4,0,12.6-1,12.6-1l0.2,3.5c0,0-8.8,1-12.8,1c-17.5,0-21.5-7.6-21.5-29.8c0-20.4,5.9-27.4,21.5-27.4
			C534.5,129.8,543.2,130.9,543.2,130.9z"/>
		<path fill="#3ACCC1" d="M589,135.1c0,0-10.7-1.8-17.9-1.8c-6.7,0-14.1,2.1-14.1,11.1c0,6.9,2.8,9,14.9,10.9
			c13.8,2.3,19.1,4.4,19.1,14.8c0,12.9-7.6,16.9-20,16.9c-6,0-17.3-1.8-17.3-1.8l0.4-3.6c0,0,11.3,1.9,16.7,1.9
			c9.9,0,16.3-2.4,16.3-13c0-8-3.8-9.5-16.3-11.5c-12.3-2-17.8-4.1-17.8-14.4c0-11.7,9.5-14.8,18-14.8c8.1,0,18.1,1.7,18.1,1.7
			L589,135.1z"/>
		<path fill="#3ACCC1" d="M637.4,135.1c0,0-10.7-1.8-17.9-1.8c-6.7,0-14.1,2.1-14.1,11.1c0,6.9,2.8,9,14.9,10.9
			c13.8,2.3,19.1,4.4,19.1,14.8c0,12.9-7.6,16.9-20,16.9c-6,0-17.3-1.8-17.3-1.8l0.4-3.6c0,0,11.3,1.9,16.7,1.9
			c9.9,0,16.3-2.4,16.3-13c0-8-3.8-9.5-16.3-11.5c-12.3-2-17.8-4.1-17.8-14.4c0-11.7,9.5-14.8,18-14.8c8.1,0,18.1,1.7,18.1,1.7
			L637.4,135.1z"/>
	</g>
</g>
</svg>
