<?xml version="1.0" standalone="no"?>
<!DOCTYPE svg PUBLIC "-//W3C//DTD SVG 20010904//EN"
 "http://www.w3.org/TR/2001/REC-SVG-20010904/DTD/svg10.dtd">
<svg version="1.0" xmlns="http://www.w3.org/2000/svg"
 width="208.000000pt" height="208.000000pt" viewBox="0 0 208.000000 208.000000"
 preserveAspectRatio="xMidYMid meet">
<metadata>
Created by potrace 1.11, written by Peter Selinger 2001-2013
</metadata>
<g transform="translate(0.000000,208.000000) scale(0.100000,-0.100000)"
fill="#000000" stroke="none">
<path d="M1493 2007 c-65 -13 -91 -28 -108 -63 -17 -37 -41 -47 -32 -14 5 20
3 19 -41 -6 -140 -80 -247 -180 -258 -238 -4 -21 -12 -101 -13 -134 -1 -7 -5
-11 -10 -8 -4 3 -7 27 -6 53 3 64 -2 69 -31 33 -28 -33 -38 -75 -43 -187 -1
-13 -5 -23 -10 -23 -5 0 -9 28 -9 63 -1 34 -1 66 -1 70 -1 5 -13 -6 -28 -25
-15 -18 -30 -35 -33 -38 -19 -17 -193 -257 -210 -289 -15 -31 -19 -54 -16
-109 2 -38 6 -74 9 -79 11 -17 16 -63 7 -63 -13 0 -48 48 -62 86 -6 19 -15 34
-19 34 -9 0 -3 -79 11 -147 6 -29 11 -55 11 -58 0 -2 9 -28 20 -57 36 -100 -9
-62 -58 49 -15 35 -30 63 -34 63 -3 0 -5 -29 -3 -65 3 -59 12 -88 71 -231 3
-8 -12 -10 -49 -6 -58 5 -63 -3 -8 -13 51 -9 66 -27 52 -62 -13 -33 -27 -104
-23 -117 1 -5 -3 -12 -9 -16 -6 -4 -13 -18 -15 -31 -2 -13 -6 -40 -9 -59 -7
-43 -11 -64 -24 -115 -5 -22 -8 -56 -7 -75 2 -19 3 -48 4 -65 1 -23 3 -27 11
-15 5 8 10 25 10 38 0 12 17 38 39 60 28 27 36 42 31 56 -9 26 -3 137 9 169 7
18 7 28 0 32 -5 4 -7 15 -4 25 3 10 8 31 10 46 2 16 7 39 10 52 3 12 7 31 9
42 13 57 215 520 236 540 3 3 13 21 22 40 55 111 108 198 108 177 0 -4 -36
-82 -81 -174 -44 -93 -84 -177 -89 -188 -4 -11 -15 -36 -23 -55 -58 -136 -132
-348 -125 -356 11 -10 185 106 246 164 37 35 53 55 36 44 -45 -31 -164 -86
-170 -79 -3 2 44 54 104 113 60 60 128 138 153 174 91 135 177 286 194 340 7
20 5 23 -6 14 -8 -6 -23 -14 -34 -17 -11 -3 -58 -19 -104 -36 -81 -30 -114
-33 -79 -7 10 7 90 53 179 102 88 49 175 103 192 120 35 34 122 188 94 165
-24 -19 -33 -7 -18 25 19 43 5 40 -45 -10 -71 -68 -87 -58 -34 21 17 24 30 47
30 51 0 4 20 30 44 57 37 42 42 51 28 56 -14 6 -11 9 13 20 17 7 33 12 37 11
13 -3 30 29 42 82 l13 56 -33 -3 c-18 -1 -50 -5 -71 -10z m-469 -652 c-4 -8
-10 -15 -15 -15 -4 0 -6 7 -3 15 4 8 10 15 15 15 4 0 6 -7 3 -15z"/>
</g>
</svg>
