<?xml version="1.0" encoding="UTF-8" standalone="no"?>
<svg width="630px" height="101px" viewBox="0 0 630 101" version="1.1" xmlns="http://www.w3.org/2000/svg" xmlns:xlink="http://www.w3.org/1999/xlink" xmlns:sketch="http://www.bohemiancoding.com/sketch/ns">
    <!-- Generator: Sketch 3.4.4 (17249) - http://www.bohemiancoding.com/sketch -->
    <title>logo-full-doc-css</title>
    <desc>Created with Sketch.</desc>
    <defs></defs>
    <g id="Page-1" stroke="none" stroke-width="1" fill="none" fill-rule="evenodd" sketch:type="MSPage">
        <g id="logo-full-doc-css" sketch:type="MSLayerGroup" fill="#FFFFFF">
            <g id="Group" transform="translate(51.000000, 21.000000)" sketch:type="MSShapeGroup">
                <path d="M49.4,77.6 L34.7,77.6 L34.7,75.4 C34.7,75.4 27.2,78.9 21.5,78.9 C5,78.9 0.1,69 0.1,49.7 C0.1,29.8 7.9,21.6 22.8,21.6 C26.9,21.6 34.7,23 34.7,23 L34.7,0.9 L49.4,0.9 L49.4,77.6 L49.4,77.6 Z M34.7,63.6 L34.7,35.8 C34.7,35.8 28.7,34.8 24,34.8 C18.5,34.8 15.1,38.7 15.1,49.6 C15.1,60.7 17.2,64.9 24.1,65.2 C28.4,65 34.7,63.6 34.7,63.6 L34.7,63.6 Z" id="Shape"></path>
                <path d="M105.5,50.1 C105.5,66.9 99.4,78.8 80.3,78.8 C61.2,78.8 55.1,67 55.1,50.1 C55.1,33.2 61.2,21.5 80.3,21.5 C99.4,21.5 105.5,33.2 105.5,50.1 L105.5,50.1 Z M90.6,50.1 C90.6,40 88.4,34.8 80.2,34.8 C72.1,34.8 69.8,40 69.8,50.1 C69.8,60.2 72,65.5 80.2,65.5 C88.4,65.6 90.6,60.2 90.6,50.1 L90.6,50.1 Z" id="Shape"></path>
                <path d="M152.7,23.8 L152.3,36.4 C152.3,36.4 143.6,35.5 139.5,35.5 C128.9,35.5 127,39.1 127,49.5 C127,61.2 129.1,64.8 139.6,64.8 C143.8,64.8 152.4,63.9 152.4,63.9 L152.8,76.5 C152.8,76.5 141.1,78.8 135,78.8 C118.7,78.8 112.2,70.1 112.2,49.5 C112.2,30.1 118.9,21.4 135.3,21.4 C141.6,21.5 152.7,23.8 152.7,23.8 L152.7,23.8 Z" id="Shape"></path>
                <path d="M206.9,22.8 L206.9,77.5 L192.2,77.5 L192.2,75.2 C192.2,75.2 183.7,78.8 178.6,78.8 C162.5,78.8 159.4,70.1 159.4,51.4 L159.4,22.8 L174,22.8 L174,51.4 C174,61.3 174.4,65.5 181.6,65.5 C185.2,65.5 192.2,63.6 192.2,63.6 L192.2,22.8 L206.9,22.8 L206.9,22.8 L206.9,22.8 Z" id="Shape"></path>
                <path d="M214,77.6 L214,22.9 L228.5,22.9 L228.5,25.6 C228.5,25.6 232.1,23.8 235.9,22.6 C237.8,22 239.8,21.6 241.4,21.6 C247.5,21.6 251.8,23.1 254.8,26.1 C260.4,24 267.6,21.6 273.6,21.6 C288.5,21.6 292.8,30.3 292.8,49 L292.8,77.6 L278.1,77.6 L278.1,55.1 C278.1,41.3 278.3,35.4 270.5,35.4 C266.2,35.4 260.3,37.5 260.3,37.5 C260.3,37.5 260.7,45 260.7,49.4 L260.7,77.8 L246,77.8 L246,49.6 C246,39.7 245.1,35.5 238.4,35.5 C234.8,35.5 228.6,37.4 228.6,37.4 L228.6,77.8 L214,77.6 L214,77.6 L214,77.6 Z" id="Shape"></path>
                <path d="M343.9,64.3 L344.1,75.7 C344.1,75.7 331.5,78.7 321.3,78.7 C304.8,78.7 297.7,70.5 297.7,50.8 C297.7,31.3 305.9,21.4 321.9,21.4 C338,21.4 345.8,29.5 345.8,46.1 L344.7,56.5 L312.4,56.5 C312.6,62.8 315.6,65.4 323.5,65.4 C332.6,65.3 343.9,64.3 343.9,64.3 L343.9,64.3 Z M331.4,45.2 C331.4,37.4 328.8,34.6 321.9,34.6 C314.9,34.6 312.4,38.1 312.3,45.2 L331.4,45.2 L331.4,45.2 Z" id="Shape"></path>
                <path d="M351.3,77.6 L351.3,22.9 L366,22.9 L366,25.9 C366,25.9 373.4,21.6 379.6,21.6 C394.9,21.6 398.8,31.3 398.8,49 L398.8,77.6 L384.1,77.6 L384.1,48.4 C384.1,40.1 383,34.7 375.9,34.7 C370.8,34.7 366,36.7 366,36.7 L366,77.6 L351.3,77.6 L351.3,77.6 L351.3,77.6 Z" id="Shape"></path>
                <path d="M425,36.1 L425,56.9 C425,62.4 425,64.9 429.6,64.9 C432.6,64.9 437.9,64.7 437.9,64.7 L438.5,77.3 C438.5,77.3 431.1,79 427.3,79 C414.1,79 410.2,73.9 410.2,58.2 L410.2,36.2 L403.7,36.2 L403.7,22.9 L410.2,22.9 L410.2,7.5 L424.8,7.5 L424.8,22.8 L438.3,22.8 L438.3,36 L425,36.1 L425,36.1 L425,36.1 Z" id="Shape"></path>
            </g>
            <path d="M7.4,81.2 C7.4,81.2 7.2,80.5 5.7,80 C5.7,80 3.9,80 3.8,80.9 C3.8,80.9 3.6,84.7 1.6,92.2 L2,100.1 C2.2,95.7 2.4,93.6 2.5,92.7 C2.4,92.5 2.4,92.1 2.5,91.7 C2.7,91.1 3,90.7 3.2,90.7 C3.5,90.8 3.6,91.3 3.4,91.9 C3.2,92.4 3,92.8 2.8,92.9 C2.6,93.9 2.4,95.9 2.1,100.4 L3.2,96.2 C3.2,96.2 4,93.3 6.9,92.3 C7,92.4 5.3,87.7 7.4,81.2 L7.4,81.2 Z" id="Shape" sketch:type="MSShapeGroup"></path>
            <g id="Group" sketch:type="MSShapeGroup">
                <g id="Shape">
                    <path d="M52.3,0.4 C51.4,0.6 50.4,0.6 49.6,0.8 C48.7,1.1 47.9,1.6 47,2 C46.6,2.2 46.6,2.2 46.3,2.4 C45.2,4.5 44.3,6.9 44.3,6.9 C44,6.3 43.9,5 44.4,3.5 C43.3,4.1 42.7,4.4 41.7,5 C38.9,6.7 33.8,10 31.4,12.8 C30.8,13.6 30.2,14.4 29.6,15.3 C29,16.3 28.1,27.2 28.1,27.2 C27.5,26.1 27.8,17.4 27.8,17.4 L24.8,21.2 L23.7,32.3 C22.8,30.6 23.3,22.7 23.3,22.7 C21.3,24.4 11.7,37 9.3,41.1 C6.9,45.4 10.4,54.8 10.4,54.8 C5.5,50.1 5.6,46.6 5.6,46.6 C3.6,50.5 9,65 9,65 C3.5,58.7 3.1,53.4 3.1,53.4 C2.2,56.6 2.8,60.1 3.4,62.6 C3.8,64.4 5.8,68.5 7,70.9 C6,70.2 4,69.2 0.3,70.5 C0.3,70.5 5.4,70.4 6.5,72.2 C6.1,73.6 5.3,76.4 4.6,79.6 C5,79.4 5.5,79.4 5.5,79.4 C6.1,79.6 6.5,79.8 6.8,80 C7,78.9 7.2,77.9 7.3,76.8 C7.7,74.5 8.3,72.1 9.1,69.9 C9.6,68.5 10.2,67 10.8,65.6 C12.4,61.6 14.1,57.6 15.9,53.7 C18.3,48.6 20.9,43.7 23.6,38.7 C27,32.8 30.4,27.1 34.2,21.4 C36.1,18.6 38,15.7 40.1,13 C38.9,14.7 20,41.4 10.3,73.5 C19.8,69.5 25.6,62.9 26.8,61.2 C24.9,63.6 13.2,68.6 13.2,68.6 L15.1,67.1 C19.1,63.7 23,60.1 26.3,56.2 C29.8,52.2 32.2,47.6 35,43.1 C35.9,41.7 36.8,40.2 37.5,38.6 C38.1,37.4 38.6,36.2 39,35 C39.1,34.8 38.8,34.6 38.6,34.7 C35.7,36.1 26.5,39.3 26.5,39.3 C26.5,39.3 26.7,38.6 27.4,37.9 C28.1,37.2 42.7,29.7 45.8,27.3 C48.7,24.9 52,16.7 52,16.7 C51.3,18.2 48.1,20.8 48.1,20.8 C49.2,19.3 51.5,13.7 51.5,13.7 C50.8,15.1 43.4,21.6 43.4,21.6 C43.7,20.1 48.5,12.4 50.5,10.4 C51.1,9.8 51.3,9.4 52,8.8 C51,8.6 50.1,8 49.3,8.2 C49.3,8.2 50.4,7.4 53.3,7.7 L53.4,7.6 C53,7.4 52,7 51.4,7.1 C51.4,7.1 52.5,6.6 54.1,6.8 C54.3,6.6 54.3,6.6 54.5,6.3 C55.4,5.3 55.5,3.8 55.8,2.6 C55.9,2.4 56.4,2.84217094e-14 56.4,2.84217094e-14 C55.2,0 53.7,0.3 52.3,0.4 L52.3,0.4 Z"></path>
                    <path d="M27.2,61.8 C27.5,61.4 27.5,61.3 27.2,61.8 L27.2,61.8 L27.2,61.8 Z"></path>
                    <path d="M27.2,61.8 C27.2,61.8 27.1,61.8 27.2,61.8 C27.1,61.8 27.1,61.8 27.2,61.8 L27.2,61.8 L27.2,61.8 Z"></path>
                </g>
                <g transform="translate(499.000000, 42.000000)" id="Shape">
                    <path d="M34.2,1.9 L34,5.4 C34,5.4 25.6,4.3 21.6,4.3 C8.1,4.3 3.9,10.7 3.9,28.2 C3.9,47.2 6.6,54.5 21.6,54.5 C25.6,54.5 34.2,53.5 34.2,53.5 L34.4,57 C34.4,57 25.6,58 21.6,58 C4.1,58 0.1,50.4 0.1,28.2 C0.1,7.8 6,0.8 21.6,0.8 C25.5,0.8 34.2,1.9 34.2,1.9 L34.2,1.9 Z"></path>
                    <path d="M80,6.1 C80,6.1 69.3,4.3 62.1,4.3 C55.4,4.3 48,6.4 48,15.4 C48,22.3 50.8,24.4 62.9,26.3 C76.7,28.6 82,30.7 82,41.1 C82,54 74.4,58 62,58 C56,58 44.7,56.2 44.7,56.2 L45.1,52.6 C45.1,52.6 56.4,54.5 61.8,54.5 C71.7,54.5 78.1,52.1 78.1,41.5 C78.1,33.5 74.3,32 61.8,30 C49.5,28 44,25.9 44,15.6 C44,3.9 53.5,0.8 62,0.8 C70.1,0.8 80.1,2.5 80.1,2.5 L80,6.1 L80,6.1 Z"></path>
                    <path d="M128.4,6.1 C128.4,6.1 117.7,4.3 110.5,4.3 C103.8,4.3 96.4,6.4 96.4,15.4 C96.4,22.3 99.2,24.4 111.3,26.3 C125.1,28.6 130.4,30.7 130.4,41.1 C130.4,54 122.8,58 110.4,58 C104.4,58 93.1,56.2 93.1,56.2 L93.5,52.6 C93.5,52.6 104.8,54.5 110.2,54.5 C120.1,54.5 126.5,52.1 126.5,41.5 C126.5,33.5 122.7,32 110.2,30 C97.9,28 92.4,25.9 92.4,15.6 C92.4,3.9 101.9,0.8 110.4,0.8 C118.5,0.8 128.5,2.5 128.5,2.5 L128.4,6.1 L128.4,6.1 Z"></path>
                </g>
            </g>
        </g>
    </g>
</svg>