<svg xmlns="http://www.w3.org/2000/svg" xmlns:xlink="http://www.w3.org/1999/xlink" xmlns:sketch="http://www.bohemiancoding.com/sketch/ns" width="67px" height="13px" viewBox="0 0 97 43" version="1.1"><style>.style0{fill:	none;fill-rule:	evenodd;}.style1{fill:	white;}.style2{mask:	url(#mask-2);fill:	#fff;}</style><!-- Generator: Sketch 3.3.2 (12043) - http://www.bohemiancoding.com/sketch --><title>bitovi-bits</title><desc>Created with Sketch.</desc><defs><path d="M0 0.6 L96.93 0.6 L96.93 42.9 L0 42.9 L0 0.6 Z"/></defs><g sketch:type="MSPage" class="style0"><g sketch:type="MSLayerGroup"><mask sketch:name="Clip 2" class="style1"><use xlink:href="#path-1"/></mask><g/><path d="M21.156 0.6 C9.496 0.6 0 10.2 0 21.8 C0 33.5 9.5 43 21.2 43 C32.809 43 42.3 33.5 42.3 21.8 C42.309 10.2 32.8 0.6 21.2 0.6 L21.156 0.6 Z M75.731 0.6 C64.071 0.6 54.6 10.2 54.6 21.8 C54.575 33.5 64.1 43 75.7 43 C87.383 43 96.9 33.5 96.9 21.8 C96.93 10.2 87.4 0.6 75.7 0.6 L75.731 0.6 Z M21.156 6.2 C29.84 6.2 36.8 13.2 36.8 21.8 C36.828 30.5 29.8 37.5 21.2 37.5 C12.469 37.5 5.5 30.5 5.5 21.8 C5.48 13.2 12.5 6.2 21.2 6.2 L21.156 6.2 Z" sketch:type="MSShapeGroup" class="style2"/></g></g></svg>